<?xml version="1.0" encoding="UTF-8" standalone="no"?><svg xmlns="http://www.w3.org/2000/svg" xmlns:xlink="http://www.w3.org/1999/xlink" contentScriptType="application/ecmascript" contentStyleType="text/css" height="847px" preserveAspectRatio="none" style="width:933px;height:847px;" version="1.1" viewBox="0 0 933 847" width="933px" zoomAndPan="magnify"><defs><filter height="300%" id="fepay0bjztdl1" width="300%" x="-1" y="-1"><feGaussianBlur result="blurOut" stdDeviation="2.0"/><feColorMatrix in="blurOut" result="blurOut2" type="matrix" values="0 0 0 0 0 0 0 0 0 0 0 0 0 0 0 0 0 0 .4 0"/><feOffset dx="4.0" dy="4.0" in="blurOut2" result="blurOut3"/><feBlend in="SourceGraphic" in2="blurOut3" mode="normal"/></filter></defs><g><!--class Riequilibrium--><rect fill="#FEFECE" filter="url(#fepay0bjztdl1)" height="86.4141" id="Riequilibrium" style="stroke: #A80036; stroke-width: 1.5;" width="111" x="543.5" y="8"/><ellipse cx="558.5" cy="24" fill="#ADD1B2" rx="11" ry="11" style="stroke: #A80036; stroke-width: 1.0;"/><path d="M560.8438,19.6719 L561.0156,19.75 C561.2344,19.4375 561.4375,19.3438 561.7344,19.3438 C562.0313,19.3438 562.3125,19.4844 562.4688,19.75 C562.5625,19.9063 562.5781,20.0313 562.5781,20.4688 L562.5781,21.8906 C562.5781,22.3125 562.5469,22.5 562.4375,22.6563 C562.2656,22.875 562,23.0156 561.7344,23.0156 C561.5156,23.0156 561.2813,22.9063 561.1406,22.7656 C561,22.6406 560.9688,22.5156 560.9063,22.1094 C560.8125,21.7031 560.6406,21.4844 560.1563,21.2031 C559.6875,20.9531 559.0781,20.7969 558.5,20.7969 C556.7656,20.7969 555.5156,22.1094 555.5156,23.8906 L555.5156,24.9844 C555.5156,26.6875 556.8125,27.7813 558.8594,27.7813 C559.625,27.7813 560.3125,27.6563 560.7344,27.3906 C560.9219,27.2969 560.9219,27.2969 561.375,26.8125 C561.5625,26.625 561.7656,26.5469 561.9844,26.5469 C562.4531,26.5469 562.8438,26.9375 562.8438,27.3906 C562.8438,27.7813 562.5156,28.2344 561.9375,28.6406 C561.1875,29.1875 560.0313,29.4844 558.8125,29.4844 C555.9219,29.4844 553.8125,27.5938 553.8125,25.0156 L553.8125,23.8906 C553.8125,21.1719 555.8125,19.0938 558.4375,19.0938 C559.3125,19.0938 559.9063,19.2344 560.8438,19.6719 Z "/><text fill="#000000" font-family="sans-serif" font-size="12" lengthAdjust="spacingAndGlyphs" textLength="79" x="572.5" y="28.1543">Riequilibrium</text><line style="stroke: #A80036; stroke-width: 1.5;" x1="544.5" x2="653.5" y1="40" y2="40"/><text fill="#000000" font-family="sans-serif" font-size="11" lengthAdjust="spacingAndGlyphs" textLength="32" x="549.5" y="54.2104">name</text><text fill="#000000" font-family="sans-serif" font-size="11" lengthAdjust="spacingAndGlyphs" textLength="20" x="549.5" y="67.0151">RAL</text><text fill="#000000" font-family="sans-serif" font-size="11" lengthAdjust="spacingAndGlyphs" textLength="70" x="549.5" y="79.8198">agency_type</text><line style="stroke: #A80036; stroke-width: 1.5;" x1="544.5" x2="653.5" y1="86.4141" y2="86.4141"/><!--class Employee--><rect fill="#FEFECE" filter="url(#fepay0bjztdl1)" height="124.8281" id="Employee" style="stroke: #A80036; stroke-width: 1.5;" width="92" x="516" y="347"/><ellipse cx="531" cy="363" fill="#ADD1B2" rx="11" ry="11" style="stroke: #A80036; stroke-width: 1.0;"/><path d="M533.3438,358.6719 L533.5156,358.75 C533.7344,358.4375 533.9375,358.3438 534.2344,358.3438 C534.5313,358.3438 534.8125,358.4844 534.9688,358.75 C535.0625,358.9063 535.0781,359.0313 535.0781,359.4688 L535.0781,360.8906 C535.0781,361.3125 535.0469,361.5 534.9375,361.6563 C534.7656,361.875 534.5,362.0156 534.2344,362.0156 C534.0156,362.0156 533.7813,361.9063 533.6406,361.7656 C533.5,361.6406 533.4688,361.5156 533.4063,361.1094 C533.3125,360.7031 533.1406,360.4844 532.6563,360.2031 C532.1875,359.9531 531.5781,359.7969 531,359.7969 C529.2656,359.7969 528.0156,361.1094 528.0156,362.8906 L528.0156,363.9844 C528.0156,365.6875 529.3125,366.7813 531.3594,366.7813 C532.125,366.7813 532.8125,366.6563 533.2344,366.3906 C533.4219,366.2969 533.4219,366.2969 533.875,365.8125 C534.0625,365.625 534.2656,365.5469 534.4844,365.5469 C534.9531,365.5469 535.3438,365.9375 535.3438,366.3906 C535.3438,366.7813 535.0156,367.2344 534.4375,367.6406 C533.6875,368.1875 532.5313,368.4844 531.3125,368.4844 C528.4219,368.4844 526.3125,366.5938 526.3125,364.0156 L526.3125,362.8906 C526.3125,360.1719 528.3125,358.0938 530.9375,358.0938 C531.8125,358.0938 532.4063,358.2344 533.3438,358.6719 Z "/><text fill="#000000" font-family="sans-serif" font-size="12" lengthAdjust="spacingAndGlyphs" textLength="60" x="545" y="367.1543">Employee</text><line style="stroke: #A80036; stroke-width: 1.5;" x1="517" x2="607" y1="379" y2="379"/><text fill="#000000" font-family="sans-serif" font-size="11" lengthAdjust="spacingAndGlyphs" textLength="11" x="522" y="393.2104">ID</text><text fill="#000000" font-family="sans-serif" font-size="11" lengthAdjust="spacingAndGlyphs" textLength="59" x="522" y="406.0151">first name</text><text fill="#000000" font-family="sans-serif" font-size="11" lengthAdjust="spacingAndGlyphs" textLength="57" x="522" y="418.8198">last name</text><text fill="#000000" font-family="sans-serif" font-size="11" lengthAdjust="spacingAndGlyphs" textLength="46" x="522" y="431.6245">birthday</text><text fill="#000000" font-family="sans-serif" font-size="11" lengthAdjust="spacingAndGlyphs" textLength="47" x="522" y="444.4292">address</text><text fill="#000000" font-family="sans-serif" font-size="11" lengthAdjust="spacingAndGlyphs" textLength="22" x="522" y="457.2339">role</text><line style="stroke: #A80036; stroke-width: 1.5;" x1="517" x2="607" y1="463.8281" y2="463.8281"/><!--class CEO--><rect fill="#FEFECE" filter="url(#fepay0bjztdl1)" height="48" id="CEO" style="stroke: #A80036; stroke-width: 1.5;" width="57" x="159.5" y="385.5"/><ellipse cx="174.5" cy="401.5" fill="#ADD1B2" rx="11" ry="11" style="stroke: #A80036; stroke-width: 1.0;"/><path d="M176.8438,397.1719 L177.0156,397.25 C177.2344,396.9375 177.4375,396.8438 177.7344,396.8438 C178.0313,396.8438 178.3125,396.9844 178.4688,397.25 C178.5625,397.4063 178.5781,397.5313 178.5781,397.9688 L178.5781,399.3906 C178.5781,399.8125 178.5469,400 178.4375,400.1563 C178.2656,400.375 178,400.5156 177.7344,400.5156 C177.5156,400.5156 177.2813,400.4063 177.1406,400.2656 C177,400.1406 176.9688,400.0156 176.9063,399.6094 C176.8125,399.2031 176.6406,398.9844 176.1563,398.7031 C175.6875,398.4531 175.0781,398.2969 174.5,398.2969 C172.7656,398.2969 171.5156,399.6094 171.5156,401.3906 L171.5156,402.4844 C171.5156,404.1875 172.8125,405.2813 174.8594,405.2813 C175.625,405.2813 176.3125,405.1563 176.7344,404.8906 C176.9219,404.7969 176.9219,404.7969 177.375,404.3125 C177.5625,404.125 177.7656,404.0469 177.9844,404.0469 C178.4531,404.0469 178.8438,404.4375 178.8438,404.8906 C178.8438,405.2813 178.5156,405.7344 177.9375,406.1406 C177.1875,406.6875 176.0313,406.9844 174.8125,406.9844 C171.9219,406.9844 169.8125,405.0938 169.8125,402.5156 L169.8125,401.3906 C169.8125,398.6719 171.8125,396.5938 174.4375,396.5938 C175.3125,396.5938 175.9063,396.7344 176.8438,397.1719 Z "/><text fill="#000000" font-family="sans-serif" font-size="12" lengthAdjust="spacingAndGlyphs" textLength="25" x="188.5" y="405.6543">CEO</text><line style="stroke: #A80036; stroke-width: 1.5;" x1="160.5" x2="215.5" y1="417.5" y2="417.5"/><line style="stroke: #A80036; stroke-width: 1.5;" x1="160.5" x2="215.5" y1="425.5" y2="425.5"/><!--class Specification_Document--><rect fill="#FEFECE" filter="url(#fepay0bjztdl1)" height="73.6094" id="Specification_Document" style="stroke: #A80036; stroke-width: 1.5;" width="182" x="159" y="555"/><ellipse cx="174" cy="571" fill="#ADD1B2" rx="11" ry="11" style="stroke: #A80036; stroke-width: 1.0;"/><path d="M176.3438,566.6719 L176.5156,566.75 C176.7344,566.4375 176.9375,566.3438 177.2344,566.3438 C177.5313,566.3438 177.8125,566.4844 177.9688,566.75 C178.0625,566.9063 178.0781,567.0313 178.0781,567.4688 L178.0781,568.8906 C178.0781,569.3125 178.0469,569.5 177.9375,569.6563 C177.7656,569.875 177.5,570.0156 177.2344,570.0156 C177.0156,570.0156 176.7813,569.9063 176.6406,569.7656 C176.5,569.6406 176.4688,569.5156 176.4063,569.1094 C176.3125,568.7031 176.1406,568.4844 175.6563,568.2031 C175.1875,567.9531 174.5781,567.7969 174,567.7969 C172.2656,567.7969 171.0156,569.1094 171.0156,570.8906 L171.0156,571.9844 C171.0156,573.6875 172.3125,574.7813 174.3594,574.7813 C175.125,574.7813 175.8125,574.6563 176.2344,574.3906 C176.4219,574.2969 176.4219,574.2969 176.875,573.8125 C177.0625,573.625 177.2656,573.5469 177.4844,573.5469 C177.9531,573.5469 178.3438,573.9375 178.3438,574.3906 C178.3438,574.7813 178.0156,575.2344 177.4375,575.6406 C176.6875,576.1875 175.5313,576.4844 174.3125,576.4844 C171.4219,576.4844 169.3125,574.5938 169.3125,572.0156 L169.3125,570.8906 C169.3125,568.1719 171.3125,566.0938 173.9375,566.0938 C174.8125,566.0938 175.4063,566.2344 176.3438,566.6719 Z "/><text fill="#000000" font-family="sans-serif" font-size="12" lengthAdjust="spacingAndGlyphs" textLength="150" x="188" y="575.1543">Specification_Document</text><line style="stroke: #A80036; stroke-width: 1.5;" x1="160" x2="340" y1="587" y2="587"/><text fill="#000000" font-family="sans-serif" font-size="11" lengthAdjust="spacingAndGlyphs" textLength="11" x="165" y="601.2104">ID</text><text fill="#000000" font-family="sans-serif" font-size="11" lengthAdjust="spacingAndGlyphs" textLength="32" x="165" y="614.0151">name</text><line style="stroke: #A80036; stroke-width: 1.5;" x1="160" x2="340" y1="620.6094" y2="620.6094"/><!--class Specification_Requirement--><rect fill="#FEFECE" filter="url(#fepay0bjztdl1)" height="124.8281" id="Specification_Requirement" style="stroke: #A80036; stroke-width: 1.5;" width="198" x="6" y="712"/><ellipse cx="21" cy="728" fill="#ADD1B2" rx="11" ry="11" style="stroke: #A80036; stroke-width: 1.0;"/><path d="M23.3438,723.6719 L23.5156,723.75 C23.7344,723.4375 23.9375,723.3438 24.2344,723.3438 C24.5313,723.3438 24.8125,723.4844 24.9688,723.75 C25.0625,723.9063 25.0781,724.0313 25.0781,724.4688 L25.0781,725.8906 C25.0781,726.3125 25.0469,726.5 24.9375,726.6563 C24.7656,726.875 24.5,727.0156 24.2344,727.0156 C24.0156,727.0156 23.7813,726.9063 23.6406,726.7656 C23.5,726.6406 23.4688,726.5156 23.4063,726.1094 C23.3125,725.7031 23.1406,725.4844 22.6563,725.2031 C22.1875,724.9531 21.5781,724.7969 21,724.7969 C19.2656,724.7969 18.0156,726.1094 18.0156,727.8906 L18.0156,728.9844 C18.0156,730.6875 19.3125,731.7813 21.3594,731.7813 C22.125,731.7813 22.8125,731.6563 23.2344,731.3906 C23.4219,731.2969 23.4219,731.2969 23.875,730.8125 C24.0625,730.625 24.2656,730.5469 24.4844,730.5469 C24.9531,730.5469 25.3438,730.9375 25.3438,731.3906 C25.3438,731.7813 25.0156,732.2344 24.4375,732.6406 C23.6875,733.1875 22.5313,733.4844 21.3125,733.4844 C18.4219,733.4844 16.3125,731.5938 16.3125,729.0156 L16.3125,727.8906 C16.3125,725.1719 18.3125,723.0938 20.9375,723.0938 C21.8125,723.0938 22.4063,723.2344 23.3438,723.6719 Z "/><text fill="#000000" font-family="sans-serif" font-size="12" lengthAdjust="spacingAndGlyphs" textLength="166" x="35" y="732.1543">Specification_Requirement</text><line style="stroke: #A80036; stroke-width: 1.5;" x1="7" x2="203" y1="744" y2="744"/><text fill="#000000" font-family="sans-serif" font-size="11" lengthAdjust="spacingAndGlyphs" textLength="11" x="12" y="758.2104">ID</text><text fill="#000000" font-family="sans-serif" font-size="11" lengthAdjust="spacingAndGlyphs" textLength="32" x="12" y="771.0151">name</text><text fill="#000000" font-family="sans-serif" font-size="11" lengthAdjust="spacingAndGlyphs" textLength="63" x="12" y="783.8198">description</text><text fill="#000000" font-family="sans-serif" font-size="11" lengthAdjust="spacingAndGlyphs" textLength="59" x="12" y="796.6245">completed</text><text fill="#000000" font-family="sans-serif" font-size="11" lengthAdjust="spacingAndGlyphs" textLength="108" x="12" y="809.4292">estimation delivery</text><text fill="#000000" font-family="sans-serif" font-size="11" lengthAdjust="spacingAndGlyphs" textLength="116" x="12" y="822.2339">variability in delivery</text><line style="stroke: #A80036; stroke-width: 1.5;" x1="7" x2="203" y1="828.8281" y2="828.8281"/><!--class Report--><rect fill="#FEFECE" filter="url(#fepay0bjztdl1)" height="73.6094" id="Report" style="stroke: #A80036; stroke-width: 1.5;" width="89" x="199.5" y="183.5"/><ellipse cx="221.25" cy="199.5" fill="#ADD1B2" rx="11" ry="11" style="stroke: #A80036; stroke-width: 1.0;"/><path d="M223.5938,195.1719 L223.7656,195.25 C223.9844,194.9375 224.1875,194.8438 224.4844,194.8438 C224.7813,194.8438 225.0625,194.9844 225.2188,195.25 C225.3125,195.4063 225.3281,195.5313 225.3281,195.9688 L225.3281,197.3906 C225.3281,197.8125 225.2969,198 225.1875,198.1563 C225.0156,198.375 224.75,198.5156 224.4844,198.5156 C224.2656,198.5156 224.0313,198.4063 223.8906,198.2656 C223.75,198.1406 223.7188,198.0156 223.6563,197.6094 C223.5625,197.2031 223.3906,196.9844 222.9063,196.7031 C222.4375,196.4531 221.8281,196.2969 221.25,196.2969 C219.5156,196.2969 218.2656,197.6094 218.2656,199.3906 L218.2656,200.4844 C218.2656,202.1875 219.5625,203.2813 221.6094,203.2813 C222.375,203.2813 223.0625,203.1563 223.4844,202.8906 C223.6719,202.7969 223.6719,202.7969 224.125,202.3125 C224.3125,202.125 224.5156,202.0469 224.7344,202.0469 C225.2031,202.0469 225.5938,202.4375 225.5938,202.8906 C225.5938,203.2813 225.2656,203.7344 224.6875,204.1406 C223.9375,204.6875 222.7813,204.9844 221.5625,204.9844 C218.6719,204.9844 216.5625,203.0938 216.5625,200.5156 L216.5625,199.3906 C216.5625,196.6719 218.5625,194.5938 221.1875,194.5938 C222.0625,194.5938 222.6563,194.7344 223.5938,195.1719 Z "/><text fill="#000000" font-family="sans-serif" font-size="12" lengthAdjust="spacingAndGlyphs" textLength="42" x="236.75" y="203.6543">Report</text><line style="stroke: #A80036; stroke-width: 1.5;" x1="200.5" x2="287.5" y1="215.5" y2="215.5"/><text fill="#000000" font-family="sans-serif" font-size="11" lengthAdjust="spacingAndGlyphs" textLength="11" x="205.5" y="229.7104">ID</text><text fill="#000000" font-family="sans-serif" font-size="11" lengthAdjust="spacingAndGlyphs" textLength="77" x="205.5" y="242.5151">creation_date</text><line style="stroke: #A80036; stroke-width: 1.5;" x1="200.5" x2="287.5" y1="249.1094" y2="249.1094"/><!--class Project--><rect fill="#FEFECE" filter="url(#fepay0bjztdl1)" height="73.6094" id="Project" style="stroke: #A80036; stroke-width: 1.5;" width="76" x="655" y="372.5"/><ellipse cx="670" cy="388.5" fill="#ADD1B2" rx="11" ry="11" style="stroke: #A80036; stroke-width: 1.0;"/><path d="M672.3438,384.1719 L672.5156,384.25 C672.7344,383.9375 672.9375,383.8438 673.2344,383.8438 C673.5313,383.8438 673.8125,383.9844 673.9688,384.25 C674.0625,384.4063 674.0781,384.5313 674.0781,384.9688 L674.0781,386.3906 C674.0781,386.8125 674.0469,387 673.9375,387.1563 C673.7656,387.375 673.5,387.5156 673.2344,387.5156 C673.0156,387.5156 672.7813,387.4063 672.6406,387.2656 C672.5,387.1406 672.4688,387.0156 672.4063,386.6094 C672.3125,386.2031 672.1406,385.9844 671.6563,385.7031 C671.1875,385.4531 670.5781,385.2969 670,385.2969 C668.2656,385.2969 667.0156,386.6094 667.0156,388.3906 L667.0156,389.4844 C667.0156,391.1875 668.3125,392.2813 670.3594,392.2813 C671.125,392.2813 671.8125,392.1563 672.2344,391.8906 C672.4219,391.7969 672.4219,391.7969 672.875,391.3125 C673.0625,391.125 673.2656,391.0469 673.4844,391.0469 C673.9531,391.0469 674.3438,391.4375 674.3438,391.8906 C674.3438,392.2813 674.0156,392.7344 673.4375,393.1406 C672.6875,393.6875 671.5313,393.9844 670.3125,393.9844 C667.4219,393.9844 665.3125,392.0938 665.3125,389.5156 L665.3125,388.3906 C665.3125,385.6719 667.3125,383.5938 669.9375,383.5938 C670.8125,383.5938 671.4063,383.7344 672.3438,384.1719 Z "/><text fill="#000000" font-family="sans-serif" font-size="12" lengthAdjust="spacingAndGlyphs" textLength="44" x="684" y="392.6543">Project</text><line style="stroke: #A80036; stroke-width: 1.5;" x1="656" x2="730" y1="404.5" y2="404.5"/><text fill="#000000" font-family="sans-serif" font-size="11" lengthAdjust="spacingAndGlyphs" textLength="11" x="661" y="418.7104">ID</text><text fill="#000000" font-family="sans-serif" font-size="11" lengthAdjust="spacingAndGlyphs" textLength="63" x="661" y="431.5151">description</text><line style="stroke: #A80036; stroke-width: 1.5;" x1="656" x2="730" y1="438.1094" y2="438.1094"/><!--class Contract--><rect fill="#FEFECE" filter="url(#fepay0bjztdl1)" height="86.4141" id="Contract" style="stroke: #A80036; stroke-width: 1.5;" width="89" x="734.5" y="549"/><ellipse cx="750.85" cy="565" fill="#ADD1B2" rx="11" ry="11" style="stroke: #A80036; stroke-width: 1.0;"/><path d="M753.1938,560.6719 L753.3656,560.75 C753.5844,560.4375 753.7875,560.3438 754.0844,560.3438 C754.3813,560.3438 754.6625,560.4844 754.8188,560.75 C754.9125,560.9063 754.9281,561.0313 754.9281,561.4688 L754.9281,562.8906 C754.9281,563.3125 754.8969,563.5 754.7875,563.6563 C754.6156,563.875 754.35,564.0156 754.0844,564.0156 C753.8656,564.0156 753.6313,563.9063 753.4906,563.7656 C753.35,563.6406 753.3188,563.5156 753.2563,563.1094 C753.1625,562.7031 752.9906,562.4844 752.5063,562.2031 C752.0375,561.9531 751.4281,561.7969 750.85,561.7969 C749.1156,561.7969 747.8656,563.1094 747.8656,564.8906 L747.8656,565.9844 C747.8656,567.6875 749.1625,568.7813 751.2094,568.7813 C751.975,568.7813 752.6625,568.6563 753.0844,568.3906 C753.2719,568.2969 753.2719,568.2969 753.725,567.8125 C753.9125,567.625 754.1156,567.5469 754.3344,567.5469 C754.8031,567.5469 755.1938,567.9375 755.1938,568.3906 C755.1938,568.7813 754.8656,569.2344 754.2875,569.6406 C753.5375,570.1875 752.3813,570.4844 751.1625,570.4844 C748.2719,570.4844 746.1625,568.5938 746.1625,566.0156 L746.1625,564.8906 C746.1625,562.1719 748.1625,560.0938 750.7875,560.0938 C751.6625,560.0938 752.2563,560.2344 753.1938,560.6719 Z "/><text fill="#000000" font-family="sans-serif" font-size="12" lengthAdjust="spacingAndGlyphs" textLength="54" x="765.15" y="569.1543">Contract</text><line style="stroke: #A80036; stroke-width: 1.5;" x1="735.5" x2="822.5" y1="581" y2="581"/><text fill="#000000" font-family="sans-serif" font-size="11" lengthAdjust="spacingAndGlyphs" textLength="11" x="740.5" y="595.2104">ID</text><text fill="#000000" font-family="sans-serif" font-size="11" lengthAdjust="spacingAndGlyphs" textLength="77" x="740.5" y="608.0151">creation_date</text><text fill="#000000" font-family="sans-serif" font-size="11" lengthAdjust="spacingAndGlyphs" textLength="36" x="740.5" y="620.8198">status</text><line style="stroke: #A80036; stroke-width: 1.5;" x1="735.5" x2="822.5" y1="627.4141" y2="627.4141"/><!--class Developer--><rect fill="#FEFECE" filter="url(#fepay0bjztdl1)" height="48" id="Developer" style="stroke: #A80036; stroke-width: 1.5;" width="95" x="196.5" y="27"/><ellipse cx="211.5" cy="43" fill="#ADD1B2" rx="11" ry="11" style="stroke: #A80036; stroke-width: 1.0;"/><path d="M213.8438,38.6719 L214.0156,38.75 C214.2344,38.4375 214.4375,38.3438 214.7344,38.3438 C215.0313,38.3438 215.3125,38.4844 215.4688,38.75 C215.5625,38.9063 215.5781,39.0313 215.5781,39.4688 L215.5781,40.8906 C215.5781,41.3125 215.5469,41.5 215.4375,41.6563 C215.2656,41.875 215,42.0156 214.7344,42.0156 C214.5156,42.0156 214.2813,41.9063 214.1406,41.7656 C214,41.6406 213.9688,41.5156 213.9063,41.1094 C213.8125,40.7031 213.6406,40.4844 213.1563,40.2031 C212.6875,39.9531 212.0781,39.7969 211.5,39.7969 C209.7656,39.7969 208.5156,41.1094 208.5156,42.8906 L208.5156,43.9844 C208.5156,45.6875 209.8125,46.7813 211.8594,46.7813 C212.625,46.7813 213.3125,46.6563 213.7344,46.3906 C213.9219,46.2969 213.9219,46.2969 214.375,45.8125 C214.5625,45.625 214.7656,45.5469 214.9844,45.5469 C215.4531,45.5469 215.8438,45.9375 215.8438,46.3906 C215.8438,46.7813 215.5156,47.2344 214.9375,47.6406 C214.1875,48.1875 213.0313,48.4844 211.8125,48.4844 C208.9219,48.4844 206.8125,46.5938 206.8125,44.0156 L206.8125,42.8906 C206.8125,40.1719 208.8125,38.0938 211.4375,38.0938 C212.3125,38.0938 212.9063,38.2344 213.8438,38.6719 Z "/><text fill="#000000" font-family="sans-serif" font-size="12" lengthAdjust="spacingAndGlyphs" textLength="63" x="225.5" y="47.1543">Developer</text><line style="stroke: #A80036; stroke-width: 1.5;" x1="197.5" x2="290.5" y1="59" y2="59"/><line style="stroke: #A80036; stroke-width: 1.5;" x1="197.5" x2="290.5" y1="67" y2="67"/><!--class Secretary--><rect fill="#FEFECE" filter="url(#fepay0bjztdl1)" height="48" id="Secretary" style="stroke: #A80036; stroke-width: 1.5;" width="92" x="389" y="385.5"/><ellipse cx="404" cy="401.5" fill="#ADD1B2" rx="11" ry="11" style="stroke: #A80036; stroke-width: 1.0;"/><path d="M406.3438,397.1719 L406.5156,397.25 C406.7344,396.9375 406.9375,396.8438 407.2344,396.8438 C407.5313,396.8438 407.8125,396.9844 407.9688,397.25 C408.0625,397.4063 408.0781,397.5313 408.0781,397.9688 L408.0781,399.3906 C408.0781,399.8125 408.0469,400 407.9375,400.1563 C407.7656,400.375 407.5,400.5156 407.2344,400.5156 C407.0156,400.5156 406.7813,400.4063 406.6406,400.2656 C406.5,400.1406 406.4688,400.0156 406.4063,399.6094 C406.3125,399.2031 406.1406,398.9844 405.6563,398.7031 C405.1875,398.4531 404.5781,398.2969 404,398.2969 C402.2656,398.2969 401.0156,399.6094 401.0156,401.3906 L401.0156,402.4844 C401.0156,404.1875 402.3125,405.2813 404.3594,405.2813 C405.125,405.2813 405.8125,405.1563 406.2344,404.8906 C406.4219,404.7969 406.4219,404.7969 406.875,404.3125 C407.0625,404.125 407.2656,404.0469 407.4844,404.0469 C407.9531,404.0469 408.3438,404.4375 408.3438,404.8906 C408.3438,405.2813 408.0156,405.7344 407.4375,406.1406 C406.6875,406.6875 405.5313,406.9844 404.3125,406.9844 C401.4219,406.9844 399.3125,405.0938 399.3125,402.5156 L399.3125,401.3906 C399.3125,398.6719 401.3125,396.5938 403.9375,396.5938 C404.8125,396.5938 405.4063,396.7344 406.3438,397.1719 Z "/><text fill="#000000" font-family="sans-serif" font-size="12" lengthAdjust="spacingAndGlyphs" textLength="60" x="418" y="405.6543">Secretary</text><line style="stroke: #A80036; stroke-width: 1.5;" x1="390" x2="480" y1="417.5" y2="417.5"/><line style="stroke: #A80036; stroke-width: 1.5;" x1="390" x2="480" y1="425.5" y2="425.5"/><!--class Customer--><rect fill="#FEFECE" filter="url(#fepay0bjztdl1)" height="99.2188" id="Customer" style="stroke: #A80036; stroke-width: 1.5;" width="92" x="784" y="171"/><ellipse cx="799" cy="187" fill="#ADD1B2" rx="11" ry="11" style="stroke: #A80036; stroke-width: 1.0;"/><path d="M801.3438,182.6719 L801.5156,182.75 C801.7344,182.4375 801.9375,182.3438 802.2344,182.3438 C802.5313,182.3438 802.8125,182.4844 802.9688,182.75 C803.0625,182.9063 803.0781,183.0313 803.0781,183.4688 L803.0781,184.8906 C803.0781,185.3125 803.0469,185.5 802.9375,185.6563 C802.7656,185.875 802.5,186.0156 802.2344,186.0156 C802.0156,186.0156 801.7813,185.9063 801.6406,185.7656 C801.5,185.6406 801.4688,185.5156 801.4063,185.1094 C801.3125,184.7031 801.1406,184.4844 800.6563,184.2031 C800.1875,183.9531 799.5781,183.7969 799,183.7969 C797.2656,183.7969 796.0156,185.1094 796.0156,186.8906 L796.0156,187.9844 C796.0156,189.6875 797.3125,190.7813 799.3594,190.7813 C800.125,190.7813 800.8125,190.6563 801.2344,190.3906 C801.4219,190.2969 801.4219,190.2969 801.875,189.8125 C802.0625,189.625 802.2656,189.5469 802.4844,189.5469 C802.9531,189.5469 803.3438,189.9375 803.3438,190.3906 C803.3438,190.7813 803.0156,191.2344 802.4375,191.6406 C801.6875,192.1875 800.5313,192.4844 799.3125,192.4844 C796.4219,192.4844 794.3125,190.5938 794.3125,188.0156 L794.3125,186.8906 C794.3125,184.1719 796.3125,182.0938 798.9375,182.0938 C799.8125,182.0938 800.4063,182.2344 801.3438,182.6719 Z "/><text fill="#000000" font-family="sans-serif" font-size="12" lengthAdjust="spacingAndGlyphs" textLength="60" x="813" y="191.1543">Customer</text><line style="stroke: #A80036; stroke-width: 1.5;" x1="785" x2="875" y1="203" y2="203"/><text fill="#000000" font-family="sans-serif" font-size="11" lengthAdjust="spacingAndGlyphs" textLength="11" x="790" y="217.2104">ID</text><text fill="#000000" font-family="sans-serif" font-size="11" lengthAdjust="spacingAndGlyphs" textLength="59" x="790" y="230.0151">first name</text><text fill="#000000" font-family="sans-serif" font-size="11" lengthAdjust="spacingAndGlyphs" textLength="57" x="790" y="242.8198">last name</text><text fill="#000000" font-family="sans-serif" font-size="11" lengthAdjust="spacingAndGlyphs" textLength="46" x="790" y="255.6245">birthday</text><line style="stroke: #A80036; stroke-width: 1.5;" x1="785" x2="875" y1="262.2188" y2="262.2188"/><!--class Project_Type--><rect fill="#FEFECE" filter="url(#fepay0bjztdl1)" height="73.6094" id="Project_Type" style="stroke: #A80036; stroke-width: 1.5;" width="111" x="637.5" y="183.5"/><ellipse cx="652.5" cy="199.5" fill="#ADD1B2" rx="11" ry="11" style="stroke: #A80036; stroke-width: 1.0;"/><path d="M654.8438,195.1719 L655.0156,195.25 C655.2344,194.9375 655.4375,194.8438 655.7344,194.8438 C656.0313,194.8438 656.3125,194.9844 656.4688,195.25 C656.5625,195.4063 656.5781,195.5313 656.5781,195.9688 L656.5781,197.3906 C656.5781,197.8125 656.5469,198 656.4375,198.1563 C656.2656,198.375 656,198.5156 655.7344,198.5156 C655.5156,198.5156 655.2813,198.4063 655.1406,198.2656 C655,198.1406 654.9688,198.0156 654.9063,197.6094 C654.8125,197.2031 654.6406,196.9844 654.1563,196.7031 C653.6875,196.4531 653.0781,196.2969 652.5,196.2969 C650.7656,196.2969 649.5156,197.6094 649.5156,199.3906 L649.5156,200.4844 C649.5156,202.1875 650.8125,203.2813 652.8594,203.2813 C653.625,203.2813 654.3125,203.1563 654.7344,202.8906 C654.9219,202.7969 654.9219,202.7969 655.375,202.3125 C655.5625,202.125 655.7656,202.0469 655.9844,202.0469 C656.4531,202.0469 656.8438,202.4375 656.8438,202.8906 C656.8438,203.2813 656.5156,203.7344 655.9375,204.1406 C655.1875,204.6875 654.0313,204.9844 652.8125,204.9844 C649.9219,204.9844 647.8125,203.0938 647.8125,200.5156 L647.8125,199.3906 C647.8125,196.6719 649.8125,194.5938 652.4375,194.5938 C653.3125,194.5938 653.9063,194.7344 654.8438,195.1719 Z "/><text fill="#000000" font-family="sans-serif" font-size="12" lengthAdjust="spacingAndGlyphs" textLength="79" x="666.5" y="203.6543">Project_Type</text><line style="stroke: #A80036; stroke-width: 1.5;" x1="638.5" x2="747.5" y1="215.5" y2="215.5"/><text fill="#000000" font-family="sans-serif" font-size="11" lengthAdjust="spacingAndGlyphs" textLength="11" x="643.5" y="229.7104">ID</text><text fill="#000000" font-family="sans-serif" font-size="11" lengthAdjust="spacingAndGlyphs" textLength="32" x="643.5" y="242.5151">name</text><line style="stroke: #A80036; stroke-width: 1.5;" x1="638.5" x2="747.5" y1="249.1094" y2="249.1094"/><!--class Payment_Document--><rect fill="#FEFECE" filter="url(#fepay0bjztdl1)" height="73.6094" id="Payment_Document" style="stroke: #A80036; stroke-width: 1.5;" width="156" x="766" y="372.5"/><ellipse cx="781" cy="388.5" fill="#ADD1B2" rx="11" ry="11" style="stroke: #A80036; stroke-width: 1.0;"/><path d="M783.3438,384.1719 L783.5156,384.25 C783.7344,383.9375 783.9375,383.8438 784.2344,383.8438 C784.5313,383.8438 784.8125,383.9844 784.9688,384.25 C785.0625,384.4063 785.0781,384.5313 785.0781,384.9688 L785.0781,386.3906 C785.0781,386.8125 785.0469,387 784.9375,387.1563 C784.7656,387.375 784.5,387.5156 784.2344,387.5156 C784.0156,387.5156 783.7813,387.4063 783.6406,387.2656 C783.5,387.1406 783.4688,387.0156 783.4063,386.6094 C783.3125,386.2031 783.1406,385.9844 782.6563,385.7031 C782.1875,385.4531 781.5781,385.2969 781,385.2969 C779.2656,385.2969 778.0156,386.6094 778.0156,388.3906 L778.0156,389.4844 C778.0156,391.1875 779.3125,392.2813 781.3594,392.2813 C782.125,392.2813 782.8125,392.1563 783.2344,391.8906 C783.4219,391.7969 783.4219,391.7969 783.875,391.3125 C784.0625,391.125 784.2656,391.0469 784.4844,391.0469 C784.9531,391.0469 785.3438,391.4375 785.3438,391.8906 C785.3438,392.2813 785.0156,392.7344 784.4375,393.1406 C783.6875,393.6875 782.5313,393.9844 781.3125,393.9844 C778.4219,393.9844 776.3125,392.0938 776.3125,389.5156 L776.3125,388.3906 C776.3125,385.6719 778.3125,383.5938 780.9375,383.5938 C781.8125,383.5938 782.4063,383.7344 783.3438,384.1719 Z "/><text fill="#000000" font-family="sans-serif" font-size="12" lengthAdjust="spacingAndGlyphs" textLength="124" x="795" y="392.6543">Payment_Document</text><line style="stroke: #A80036; stroke-width: 1.5;" x1="767" x2="921" y1="404.5" y2="404.5"/><text fill="#000000" font-family="sans-serif" font-size="11" lengthAdjust="spacingAndGlyphs" textLength="11" x="772" y="418.7104">ID</text><text fill="#000000" font-family="sans-serif" font-size="11" lengthAdjust="spacingAndGlyphs" textLength="34" x="772" y="431.5151">payed</text><line style="stroke: #A80036; stroke-width: 1.5;" x1="767" x2="921" y1="438.1094" y2="438.1094"/><!--link Riequilibrium to Project_Type--><path d="M622.72,94.267 C638.166,121.791 658.101,157.312 672.791,183.49 " fill="none" id="Riequilibrium-Project_Type" style="stroke: #A80036; stroke-width: 1.0;"/><text fill="#000000" font-family="sans-serif" font-size="13" lengthAdjust="spacingAndGlyphs" textLength="85" x="650" y="137.0669">offers service</text><text fill="#000000" font-family="sans-serif" font-size="13" lengthAdjust="spacingAndGlyphs" textLength="8" x="617.8629" y="114.4025">1</text><text fill="#000000" font-family="sans-serif" font-size="13" lengthAdjust="spacingAndGlyphs" textLength="7" x="661.4197" y="172.3986">*</text><!--link Project_Type to Project--><path d="M693,257.555 C693,290.563 693,339.164 693,372.237 " fill="none" id="Project_Type-Project" style="stroke: #A80036; stroke-width: 1.0;"/><text fill="#000000" font-family="sans-serif" font-size="13" lengthAdjust="spacingAndGlyphs" textLength="22" x="694" y="313.0669">is a</text><text fill="#000000" font-family="sans-serif" font-size="13" lengthAdjust="spacingAndGlyphs" textLength="8" x="684.3375" y="277.0447">1</text><text fill="#000000" font-family="sans-serif" font-size="13" lengthAdjust="spacingAndGlyphs" textLength="7" x="685.3766" y="361.3771">*</text><!--link Project to Contract--><path d="M692.803,446.597 C693.991,468.537 697.91,496.552 709,519 C715.255,531.661 724.559,543.518 734.358,553.812 " fill="none" id="Project-Contract" style="stroke: #A80036; stroke-width: 1.0;"/><text fill="#000000" font-family="sans-serif" font-size="13" lengthAdjust="spacingAndGlyphs" textLength="86" x="710" y="515.0669">associated to</text><!--link Project to Specification_Document--><path d="M658.924,446.503 C648.709,455.792 637.009,465.104 625,472 C535.115,523.616 420.025,555.853 341.196,573.549 " fill="none" id="Project-Specification_Document" style="stroke: #A80036; stroke-width: 1.0;"/><text fill="#000000" font-family="sans-serif" font-size="13" lengthAdjust="spacingAndGlyphs" textLength="76" x="559" y="515.0669">is related to</text><!--link Specification_Document to Specification_Requirement--><path d="M212.637,639.51 C194.933,661.549 173.542,688.177 154.509,711.869 " fill="none" id="Specification_Document-Specification_Requirement" style="stroke: #A80036; stroke-width: 1.0;"/><polygon fill="#FFFFFF" points="221.006,629.093,214.1299,631.2654,213.4905,638.4481,220.3666,636.2757,221.006,629.093" style="stroke: #A80036; stroke-width: 1.0;"/><text fill="#000000" font-family="sans-serif" font-size="13" lengthAdjust="spacingAndGlyphs" textLength="97" x="192" y="678.0669">is composed of</text><!--link Riequilibrium to Employee--><path d="M584.993,94.167 C578.192,116.693 570.706,145.056 567,171 C558.544,230.2 558.063,298.531 559.236,346.657 " fill="none" id="Riequilibrium-Employee" style="stroke: #A80036; stroke-width: 1.0;"/><text fill="#000000" font-family="sans-serif" font-size="13" lengthAdjust="spacingAndGlyphs" textLength="51" x="568" y="225.0669">works in</text><text fill="#000000" font-family="sans-serif" font-size="13" lengthAdjust="spacingAndGlyphs" textLength="8" x="574.0106" y="114.6023">1</text><text fill="#000000" font-family="sans-serif" font-size="13" lengthAdjust="spacingAndGlyphs" textLength="7" x="551.5509" y="336.0468">*</text><!--link Secretary to Employee--><path d="M481.137,409.5 C486.023,409.5 490.909,409.5 495.795,409.5 " fill="none" id="Secretary-Employee" style="stroke: #A80036; stroke-width: 1.0;"/><polygon fill="none" points="495.883,402.5,515.883,409.5,495.883,416.5,495.883,402.5" style="stroke: #A80036; stroke-width: 1.0;"/><!--link Developer to Employee--><path d="M264.62,75.116 C312.008,128.241 430.145,260.681 502.446,341.736 " fill="none" id="Developer-Employee" style="stroke: #A80036; stroke-width: 1.0;"/><polygon fill="none" points="507.733,337.147,515.823,356.732,497.286,346.467,507.733,337.147" style="stroke: #A80036; stroke-width: 1.0;"/><!--link Developer to Specification_Requirement--><path d="M196.481,66.986 C135.644,89.488 38,138.259 38,219.5 C38,219.5 38,219.5 38,593 C38,634.281 53.593,677.74 69.7341,711.669 " fill="none" id="Developer-Specification_Requirement" style="stroke: #A80036; stroke-width: 1.0;"/><text fill="#000000" font-family="sans-serif" font-size="13" lengthAdjust="spacingAndGlyphs" textLength="84" x="39" y="414.0669">has assigned</text><text fill="#000000" font-family="sans-serif" font-size="13" lengthAdjust="spacingAndGlyphs" textLength="8" x="180.5922" y="65.3625">1</text><text fill="#000000" font-family="sans-serif" font-size="13" lengthAdjust="spacingAndGlyphs" textLength="7" x="58.4941" y="701.0601">*</text><!--link Developer to Report--><path d="M244,75.29 C244,103.246 244,150.448 244,183.2 " fill="none" id="Developer-Report" style="stroke: #A80036; stroke-width: 1.0;"/><text fill="#000000" font-family="sans-serif" font-size="13" lengthAdjust="spacingAndGlyphs" textLength="31" x="245" y="137.0669">send</text><text fill="#000000" font-family="sans-serif" font-size="13" lengthAdjust="spacingAndGlyphs" textLength="8" x="235.025" y="95.1219">1</text><text fill="#000000" font-family="sans-serif" font-size="13" lengthAdjust="spacingAndGlyphs" textLength="7" x="236.3766" y="172.3335">*</text><!--link Report to CEO--><path d="M228.339,257.835 C223.03,270.968 217.348,286.007 213,300 C203.994,328.982 196.632,363.224 192.284,385.374 " fill="none" id="Report-CEO" style="stroke: #A80036; stroke-width: 1.0;"/><text fill="#000000" font-family="sans-serif" font-size="13" lengthAdjust="spacingAndGlyphs" textLength="46" x="214" y="313.0669">receive</text><text fill="#000000" font-family="sans-serif" font-size="13" lengthAdjust="spacingAndGlyphs" textLength="7" x="218.2852" y="277.0892">*</text><text fill="#000000" font-family="sans-serif" font-size="13" lengthAdjust="spacingAndGlyphs" textLength="8" x="184.3568" y="374.3537">1</text><!--link Report to Specification_Document--><path d="M255.842,257.841 C259.555,270.975 263.161,286.013 265,300 C277.685,396.503 274.978,422.179 265,519 C263.783,530.812 261.47,543.544 259.019,554.969 " fill="none" id="Report-Specification_Document" style="stroke: #A80036; stroke-width: 1.0;"/><text fill="#000000" font-family="sans-serif" font-size="13" lengthAdjust="spacingAndGlyphs" textLength="65" x="275" y="414.0669">is referred</text><text fill="#000000" font-family="sans-serif" font-size="13" lengthAdjust="spacingAndGlyphs" textLength="7" x="250.1715" y="277.0961">*</text><text fill="#000000" font-family="sans-serif" font-size="13" lengthAdjust="spacingAndGlyphs" textLength="8" x="251.9444" y="543.8737">1</text><!--link CEO to Employee--><path d="M197.788,385.094 C209.074,360.65 230.191,324.437 261.5,308.5 C348.242,264.345 392.685,266.521 480.5,308.5 C492.312,314.146 502.96,322.433 512.365,331.87 " fill="none" id="CEO-Employee" style="stroke: #A80036; stroke-width: 1.0;"/><polygon fill="none" points="517.645,327.273,525.673,346.883,507.168,336.56,517.645,327.273" style="stroke: #A80036; stroke-width: 1.0;"/><!--link Customer to Project--><path d="M794.362,270.144 C770.974,302.068 740.888,343.135 719.586,372.212 " fill="none" id="Customer-Project" style="stroke: #A80036; stroke-width: 1.0;"/><text fill="#000000" font-family="sans-serif" font-size="13" lengthAdjust="spacingAndGlyphs" textLength="56" x="771" y="313.0669">requests</text><text fill="#000000" font-family="sans-serif" font-size="13" lengthAdjust="spacingAndGlyphs" textLength="8" x="780.7879" y="290.2407">1</text><text fill="#000000" font-family="sans-serif" font-size="13" lengthAdjust="spacingAndGlyphs" textLength="7" x="716.6982" y="361.3477">*</text><!--link Payment_Document to Contract--><path d="M831.003,446.593 C820.37,476.12 805.317,517.919 794.141,548.954 " fill="none" id="Payment_Document-Contract" style="stroke: #A80036; stroke-width: 1.0;"/><text fill="#000000" font-family="sans-serif" font-size="13" lengthAdjust="spacingAndGlyphs" textLength="23" x="810" y="515.0669">has</text><text fill="#000000" font-family="sans-serif" font-size="13" lengthAdjust="spacingAndGlyphs" textLength="20" x="807.1941" y="466.089">0.1</text><text fill="#000000" font-family="sans-serif" font-size="13" lengthAdjust="spacingAndGlyphs" textLength="8" x="787.9166" y="537.9427">1</text><!--link CEO to Specification_Document--><path d="M190.974,433.9 C194.274,456.249 200.558,490.63 211,519 C215.468,531.14 221.688,543.748 227.849,554.956 " fill="none" id="CEO-Specification_Document" style="stroke: #A80036; stroke-width: 1.0;"/><text fill="#000000" font-family="sans-serif" font-size="13" lengthAdjust="spacingAndGlyphs" textLength="48" x="212" y="515.0669">creates</text><text fill="#000000" font-family="sans-serif" font-size="13" lengthAdjust="spacingAndGlyphs" textLength="8" x="182.7239" y="453.7587">1</text><text fill="#000000" font-family="sans-serif" font-size="13" lengthAdjust="spacingAndGlyphs" textLength="7" x="216.1196" y="543.8583">*</text><!--
@startuml
class Riequilibrium {
   name
   RAL
   agency_type
}

class Employee {
   ID
   first name
   last name
   birthday
   address
   role
}

class CEO {
}

class Specification_Document {
   ID
   name
}

class Specification_Requirement {
   ID
   name
   description
   completed
   estimation delivery
   variability in delivery
}

class Report {
    ID
    creation_date
}

class Project {
   ID
   description
}

class Contract {
   ID
   creation_date
   status
}

class Developer {
}

class Secretary {
}

class Customer {
   ID
   first name
   last name
   birthday
}

class Project_Type {
   ID
   name
}

class Payment_Document {
   ID
   payed
}

Riequilibrium"1" - - "*"Project_Type : offers service
Project_Type"1" - - "*"Project : is a
Project - - Contract : associated to
Project - - Specification_Document : is related to
Specification_Document o- - Specification_Requirement : is composed of
Riequilibrium"1" - - "*"Employee : works in
Secretary -|> Employee
Developer -|> Employee
Developer"1"- - "*"Specification_Requirement : has assigned
Developer"1" - -"*" Report : send
Report"*" - - "1"CEO : receive
Report"*" - - "1"Specification_Document : is referred
CEO -|> Employee
Customer"1" - - "*"Project :requests
Payment_Document"0.1" - -"1" Contract : has
CEO"1" - - "*"Specification_Document : creates
@enduml

PlantUML version 1.2019.03(Sun Mar 10 11:04:44 UTC 2019)
(GPL source distribution)
Java Runtime: Java(TM) SE Runtime Environment
JVM: Java HotSpot(TM) 64-Bit Server VM
Java Version: 1.7.0_25-b15
Operating System: Linux
Default Encoding: UTF-8
Language: en
Country: US
--></g></svg>