<?xml version="1.0" encoding="UTF-8" standalone="no"?><svg xmlns="http://www.w3.org/2000/svg" xmlns:xlink="http://www.w3.org/1999/xlink" contentScriptType="application/ecmascript" contentStyleType="text/css" height="847px" preserveAspectRatio="none" style="width:1074px;height:847px;" version="1.1" viewBox="0 0 1074 847" width="1074px" zoomAndPan="magnify"><defs><filter height="300%" id="f1gnwkycrn16tg" width="300%" x="-1" y="-1"><feGaussianBlur result="blurOut" stdDeviation="2.0"/><feColorMatrix in="blurOut" result="blurOut2" type="matrix" values="0 0 0 0 0 0 0 0 0 0 0 0 0 0 0 0 0 0 .4 0"/><feOffset dx="4.0" dy="4.0" in="blurOut2" result="blurOut3"/><feBlend in="SourceGraphic" in2="blurOut3" mode="normal"/></filter></defs><g><!--class Riequilibrium--><rect fill="#FEFECE" filter="url(#f1gnwkycrn16tg)" height="86.4141" id="Riequilibrium" style="stroke: #A80036; stroke-width: 1.5;" width="111" x="718.5" y="8"/><ellipse cx="733.5" cy="24" fill="#ADD1B2" rx="11" ry="11" style="stroke: #A80036; stroke-width: 1.0;"/><path d="M735.8438,19.6719 L736.0156,19.75 C736.2344,19.4375 736.4375,19.3438 736.7344,19.3438 C737.0313,19.3438 737.3125,19.4844 737.4688,19.75 C737.5625,19.9063 737.5781,20.0313 737.5781,20.4688 L737.5781,21.8906 C737.5781,22.3125 737.5469,22.5 737.4375,22.6563 C737.2656,22.875 737,23.0156 736.7344,23.0156 C736.5156,23.0156 736.2813,22.9063 736.1406,22.7656 C736,22.6406 735.9688,22.5156 735.9063,22.1094 C735.8125,21.7031 735.6406,21.4844 735.1563,21.2031 C734.6875,20.9531 734.0781,20.7969 733.5,20.7969 C731.7656,20.7969 730.5156,22.1094 730.5156,23.8906 L730.5156,24.9844 C730.5156,26.6875 731.8125,27.7813 733.8594,27.7813 C734.625,27.7813 735.3125,27.6563 735.7344,27.3906 C735.9219,27.2969 735.9219,27.2969 736.375,26.8125 C736.5625,26.625 736.7656,26.5469 736.9844,26.5469 C737.4531,26.5469 737.8438,26.9375 737.8438,27.3906 C737.8438,27.7813 737.5156,28.2344 736.9375,28.6406 C736.1875,29.1875 735.0313,29.4844 733.8125,29.4844 C730.9219,29.4844 728.8125,27.5938 728.8125,25.0156 L728.8125,23.8906 C728.8125,21.1719 730.8125,19.0938 733.4375,19.0938 C734.3125,19.0938 734.9063,19.2344 735.8438,19.6719 Z "/><text fill="#000000" font-family="sans-serif" font-size="12" lengthAdjust="spacingAndGlyphs" textLength="79" x="747.5" y="28.1543">Riequilibrium</text><line style="stroke: #A80036; stroke-width: 1.5;" x1="719.5" x2="828.5" y1="40" y2="40"/><text fill="#000000" font-family="sans-serif" font-size="11" lengthAdjust="spacingAndGlyphs" textLength="32" x="724.5" y="54.2104">name</text><text fill="#000000" font-family="sans-serif" font-size="11" lengthAdjust="spacingAndGlyphs" textLength="20" x="724.5" y="67.0151">RAL</text><text fill="#000000" font-family="sans-serif" font-size="11" lengthAdjust="spacingAndGlyphs" textLength="70" x="724.5" y="79.8198">agency_type</text><line style="stroke: #A80036; stroke-width: 1.5;" x1="719.5" x2="828.5" y1="86.4141" y2="86.4141"/><!--class Employee--><rect fill="#FEFECE" filter="url(#f1gnwkycrn16tg)" height="124.8281" id="Employee" style="stroke: #A80036; stroke-width: 1.5;" width="92" x="780" y="347"/><ellipse cx="795" cy="363" fill="#ADD1B2" rx="11" ry="11" style="stroke: #A80036; stroke-width: 1.0;"/><path d="M797.3438,358.6719 L797.5156,358.75 C797.7344,358.4375 797.9375,358.3438 798.2344,358.3438 C798.5313,358.3438 798.8125,358.4844 798.9688,358.75 C799.0625,358.9063 799.0781,359.0313 799.0781,359.4688 L799.0781,360.8906 C799.0781,361.3125 799.0469,361.5 798.9375,361.6563 C798.7656,361.875 798.5,362.0156 798.2344,362.0156 C798.0156,362.0156 797.7813,361.9063 797.6406,361.7656 C797.5,361.6406 797.4688,361.5156 797.4063,361.1094 C797.3125,360.7031 797.1406,360.4844 796.6563,360.2031 C796.1875,359.9531 795.5781,359.7969 795,359.7969 C793.2656,359.7969 792.0156,361.1094 792.0156,362.8906 L792.0156,363.9844 C792.0156,365.6875 793.3125,366.7813 795.3594,366.7813 C796.125,366.7813 796.8125,366.6563 797.2344,366.3906 C797.4219,366.2969 797.4219,366.2969 797.875,365.8125 C798.0625,365.625 798.2656,365.5469 798.4844,365.5469 C798.9531,365.5469 799.3438,365.9375 799.3438,366.3906 C799.3438,366.7813 799.0156,367.2344 798.4375,367.6406 C797.6875,368.1875 796.5313,368.4844 795.3125,368.4844 C792.4219,368.4844 790.3125,366.5938 790.3125,364.0156 L790.3125,362.8906 C790.3125,360.1719 792.3125,358.0938 794.9375,358.0938 C795.8125,358.0938 796.4063,358.2344 797.3438,358.6719 Z "/><text fill="#000000" font-family="sans-serif" font-size="12" lengthAdjust="spacingAndGlyphs" textLength="60" x="809" y="367.1543">Employee</text><line style="stroke: #A80036; stroke-width: 1.5;" x1="781" x2="871" y1="379" y2="379"/><text fill="#000000" font-family="sans-serif" font-size="11" lengthAdjust="spacingAndGlyphs" textLength="11" x="786" y="393.2104">ID</text><text fill="#000000" font-family="sans-serif" font-size="11" lengthAdjust="spacingAndGlyphs" textLength="59" x="786" y="406.0151">first name</text><text fill="#000000" font-family="sans-serif" font-size="11" lengthAdjust="spacingAndGlyphs" textLength="57" x="786" y="418.8198">last name</text><text fill="#000000" font-family="sans-serif" font-size="11" lengthAdjust="spacingAndGlyphs" textLength="46" x="786" y="431.6245">birthday</text><text fill="#000000" font-family="sans-serif" font-size="11" lengthAdjust="spacingAndGlyphs" textLength="47" x="786" y="444.4292">address</text><text fill="#000000" font-family="sans-serif" font-size="11" lengthAdjust="spacingAndGlyphs" textLength="22" x="786" y="457.2339">role</text><line style="stroke: #A80036; stroke-width: 1.5;" x1="781" x2="871" y1="463.8281" y2="463.8281"/><!--class CEO--><rect fill="#FEFECE" filter="url(#f1gnwkycrn16tg)" height="48" id="CEO" style="stroke: #A80036; stroke-width: 1.5;" width="57" x="576.5" y="385.5"/><ellipse cx="591.5" cy="401.5" fill="#ADD1B2" rx="11" ry="11" style="stroke: #A80036; stroke-width: 1.0;"/><path d="M593.8438,397.1719 L594.0156,397.25 C594.2344,396.9375 594.4375,396.8438 594.7344,396.8438 C595.0313,396.8438 595.3125,396.9844 595.4688,397.25 C595.5625,397.4063 595.5781,397.5313 595.5781,397.9688 L595.5781,399.3906 C595.5781,399.8125 595.5469,400 595.4375,400.1563 C595.2656,400.375 595,400.5156 594.7344,400.5156 C594.5156,400.5156 594.2813,400.4063 594.1406,400.2656 C594,400.1406 593.9688,400.0156 593.9063,399.6094 C593.8125,399.2031 593.6406,398.9844 593.1563,398.7031 C592.6875,398.4531 592.0781,398.2969 591.5,398.2969 C589.7656,398.2969 588.5156,399.6094 588.5156,401.3906 L588.5156,402.4844 C588.5156,404.1875 589.8125,405.2813 591.8594,405.2813 C592.625,405.2813 593.3125,405.1563 593.7344,404.8906 C593.9219,404.7969 593.9219,404.7969 594.375,404.3125 C594.5625,404.125 594.7656,404.0469 594.9844,404.0469 C595.4531,404.0469 595.8438,404.4375 595.8438,404.8906 C595.8438,405.2813 595.5156,405.7344 594.9375,406.1406 C594.1875,406.6875 593.0313,406.9844 591.8125,406.9844 C588.9219,406.9844 586.8125,405.0938 586.8125,402.5156 L586.8125,401.3906 C586.8125,398.6719 588.8125,396.5938 591.4375,396.5938 C592.3125,396.5938 592.9063,396.7344 593.8438,397.1719 Z "/><text fill="#000000" font-family="sans-serif" font-size="12" lengthAdjust="spacingAndGlyphs" textLength="25" x="605.5" y="405.6543">CEO</text><line style="stroke: #A80036; stroke-width: 1.5;" x1="577.5" x2="632.5" y1="417.5" y2="417.5"/><line style="stroke: #A80036; stroke-width: 1.5;" x1="577.5" x2="632.5" y1="425.5" y2="425.5"/><!--class Specification_Document--><rect fill="#FEFECE" filter="url(#f1gnwkycrn16tg)" height="73.6094" id="Specification_Document" style="stroke: #A80036; stroke-width: 1.5;" width="182" x="219" y="555"/><ellipse cx="234" cy="571" fill="#ADD1B2" rx="11" ry="11" style="stroke: #A80036; stroke-width: 1.0;"/><path d="M236.3438,566.6719 L236.5156,566.75 C236.7344,566.4375 236.9375,566.3438 237.2344,566.3438 C237.5313,566.3438 237.8125,566.4844 237.9688,566.75 C238.0625,566.9063 238.0781,567.0313 238.0781,567.4688 L238.0781,568.8906 C238.0781,569.3125 238.0469,569.5 237.9375,569.6563 C237.7656,569.875 237.5,570.0156 237.2344,570.0156 C237.0156,570.0156 236.7813,569.9063 236.6406,569.7656 C236.5,569.6406 236.4688,569.5156 236.4063,569.1094 C236.3125,568.7031 236.1406,568.4844 235.6563,568.2031 C235.1875,567.9531 234.5781,567.7969 234,567.7969 C232.2656,567.7969 231.0156,569.1094 231.0156,570.8906 L231.0156,571.9844 C231.0156,573.6875 232.3125,574.7813 234.3594,574.7813 C235.125,574.7813 235.8125,574.6563 236.2344,574.3906 C236.4219,574.2969 236.4219,574.2969 236.875,573.8125 C237.0625,573.625 237.2656,573.5469 237.4844,573.5469 C237.9531,573.5469 238.3438,573.9375 238.3438,574.3906 C238.3438,574.7813 238.0156,575.2344 237.4375,575.6406 C236.6875,576.1875 235.5313,576.4844 234.3125,576.4844 C231.4219,576.4844 229.3125,574.5938 229.3125,572.0156 L229.3125,570.8906 C229.3125,568.1719 231.3125,566.0938 233.9375,566.0938 C234.8125,566.0938 235.4063,566.2344 236.3438,566.6719 Z "/><text fill="#000000" font-family="sans-serif" font-size="12" lengthAdjust="spacingAndGlyphs" textLength="150" x="248" y="575.1543">Specification_Document</text><line style="stroke: #A80036; stroke-width: 1.5;" x1="220" x2="400" y1="587" y2="587"/><text fill="#000000" font-family="sans-serif" font-size="11" lengthAdjust="spacingAndGlyphs" textLength="11" x="225" y="601.2104">ID</text><text fill="#000000" font-family="sans-serif" font-size="11" lengthAdjust="spacingAndGlyphs" textLength="32" x="225" y="614.0151">name</text><line style="stroke: #A80036; stroke-width: 1.5;" x1="220" x2="400" y1="620.6094" y2="620.6094"/><!--class Specification_Requirement--><rect fill="#FEFECE" filter="url(#f1gnwkycrn16tg)" height="124.8281" id="Specification_Requirement" style="stroke: #A80036; stroke-width: 1.5;" width="198" x="6" y="712"/><ellipse cx="21" cy="728" fill="#ADD1B2" rx="11" ry="11" style="stroke: #A80036; stroke-width: 1.0;"/><path d="M23.3438,723.6719 L23.5156,723.75 C23.7344,723.4375 23.9375,723.3438 24.2344,723.3438 C24.5313,723.3438 24.8125,723.4844 24.9688,723.75 C25.0625,723.9063 25.0781,724.0313 25.0781,724.4688 L25.0781,725.8906 C25.0781,726.3125 25.0469,726.5 24.9375,726.6563 C24.7656,726.875 24.5,727.0156 24.2344,727.0156 C24.0156,727.0156 23.7813,726.9063 23.6406,726.7656 C23.5,726.6406 23.4688,726.5156 23.4063,726.1094 C23.3125,725.7031 23.1406,725.4844 22.6563,725.2031 C22.1875,724.9531 21.5781,724.7969 21,724.7969 C19.2656,724.7969 18.0156,726.1094 18.0156,727.8906 L18.0156,728.9844 C18.0156,730.6875 19.3125,731.7813 21.3594,731.7813 C22.125,731.7813 22.8125,731.6563 23.2344,731.3906 C23.4219,731.2969 23.4219,731.2969 23.875,730.8125 C24.0625,730.625 24.2656,730.5469 24.4844,730.5469 C24.9531,730.5469 25.3438,730.9375 25.3438,731.3906 C25.3438,731.7813 25.0156,732.2344 24.4375,732.6406 C23.6875,733.1875 22.5313,733.4844 21.3125,733.4844 C18.4219,733.4844 16.3125,731.5938 16.3125,729.0156 L16.3125,727.8906 C16.3125,725.1719 18.3125,723.0938 20.9375,723.0938 C21.8125,723.0938 22.4063,723.2344 23.3438,723.6719 Z "/><text fill="#000000" font-family="sans-serif" font-size="12" lengthAdjust="spacingAndGlyphs" textLength="166" x="35" y="732.1543">Specification_Requirement</text><line style="stroke: #A80036; stroke-width: 1.5;" x1="7" x2="203" y1="744" y2="744"/><text fill="#000000" font-family="sans-serif" font-size="11" lengthAdjust="spacingAndGlyphs" textLength="11" x="12" y="758.2104">ID</text><text fill="#000000" font-family="sans-serif" font-size="11" lengthAdjust="spacingAndGlyphs" textLength="32" x="12" y="771.0151">name</text><text fill="#000000" font-family="sans-serif" font-size="11" lengthAdjust="spacingAndGlyphs" textLength="63" x="12" y="783.8198">description</text><text fill="#000000" font-family="sans-serif" font-size="11" lengthAdjust="spacingAndGlyphs" textLength="59" x="12" y="796.6245">completed</text><text fill="#000000" font-family="sans-serif" font-size="11" lengthAdjust="spacingAndGlyphs" textLength="108" x="12" y="809.4292">estimation delivery</text><text fill="#000000" font-family="sans-serif" font-size="11" lengthAdjust="spacingAndGlyphs" textLength="116" x="12" y="822.2339">variability in delivery</text><line style="stroke: #A80036; stroke-width: 1.5;" x1="7" x2="203" y1="828.8281" y2="828.8281"/><!--class Report--><rect fill="#FEFECE" filter="url(#f1gnwkycrn16tg)" height="73.6094" id="Report" style="stroke: #A80036; stroke-width: 1.5;" width="89" x="249.5" y="183.5"/><ellipse cx="271.25" cy="199.5" fill="#ADD1B2" rx="11" ry="11" style="stroke: #A80036; stroke-width: 1.0;"/><path d="M273.5938,195.1719 L273.7656,195.25 C273.9844,194.9375 274.1875,194.8438 274.4844,194.8438 C274.7813,194.8438 275.0625,194.9844 275.2188,195.25 C275.3125,195.4063 275.3281,195.5313 275.3281,195.9688 L275.3281,197.3906 C275.3281,197.8125 275.2969,198 275.1875,198.1563 C275.0156,198.375 274.75,198.5156 274.4844,198.5156 C274.2656,198.5156 274.0313,198.4063 273.8906,198.2656 C273.75,198.1406 273.7188,198.0156 273.6563,197.6094 C273.5625,197.2031 273.3906,196.9844 272.9063,196.7031 C272.4375,196.4531 271.8281,196.2969 271.25,196.2969 C269.5156,196.2969 268.2656,197.6094 268.2656,199.3906 L268.2656,200.4844 C268.2656,202.1875 269.5625,203.2813 271.6094,203.2813 C272.375,203.2813 273.0625,203.1563 273.4844,202.8906 C273.6719,202.7969 273.6719,202.7969 274.125,202.3125 C274.3125,202.125 274.5156,202.0469 274.7344,202.0469 C275.2031,202.0469 275.5938,202.4375 275.5938,202.8906 C275.5938,203.2813 275.2656,203.7344 274.6875,204.1406 C273.9375,204.6875 272.7813,204.9844 271.5625,204.9844 C268.6719,204.9844 266.5625,203.0938 266.5625,200.5156 L266.5625,199.3906 C266.5625,196.6719 268.5625,194.5938 271.1875,194.5938 C272.0625,194.5938 272.6563,194.7344 273.5938,195.1719 Z "/><text fill="#000000" font-family="sans-serif" font-size="12" lengthAdjust="spacingAndGlyphs" textLength="42" x="286.75" y="203.6543">Report</text><line style="stroke: #A80036; stroke-width: 1.5;" x1="250.5" x2="337.5" y1="215.5" y2="215.5"/><text fill="#000000" font-family="sans-serif" font-size="11" lengthAdjust="spacingAndGlyphs" textLength="11" x="255.5" y="229.7104">ID</text><text fill="#000000" font-family="sans-serif" font-size="11" lengthAdjust="spacingAndGlyphs" textLength="77" x="255.5" y="242.5151">creation_date</text><line style="stroke: #A80036; stroke-width: 1.5;" x1="250.5" x2="337.5" y1="249.1094" y2="249.1094"/><!--class Project--><rect fill="#FEFECE" filter="url(#f1gnwkycrn16tg)" height="73.6094" id="Project" style="stroke: #A80036; stroke-width: 1.5;" width="76" x="669" y="372.5"/><ellipse cx="684" cy="388.5" fill="#ADD1B2" rx="11" ry="11" style="stroke: #A80036; stroke-width: 1.0;"/><path d="M686.3438,384.1719 L686.5156,384.25 C686.7344,383.9375 686.9375,383.8438 687.2344,383.8438 C687.5313,383.8438 687.8125,383.9844 687.9688,384.25 C688.0625,384.4063 688.0781,384.5313 688.0781,384.9688 L688.0781,386.3906 C688.0781,386.8125 688.0469,387 687.9375,387.1563 C687.7656,387.375 687.5,387.5156 687.2344,387.5156 C687.0156,387.5156 686.7813,387.4063 686.6406,387.2656 C686.5,387.1406 686.4688,387.0156 686.4063,386.6094 C686.3125,386.2031 686.1406,385.9844 685.6563,385.7031 C685.1875,385.4531 684.5781,385.2969 684,385.2969 C682.2656,385.2969 681.0156,386.6094 681.0156,388.3906 L681.0156,389.4844 C681.0156,391.1875 682.3125,392.2813 684.3594,392.2813 C685.125,392.2813 685.8125,392.1563 686.2344,391.8906 C686.4219,391.7969 686.4219,391.7969 686.875,391.3125 C687.0625,391.125 687.2656,391.0469 687.4844,391.0469 C687.9531,391.0469 688.3438,391.4375 688.3438,391.8906 C688.3438,392.2813 688.0156,392.7344 687.4375,393.1406 C686.6875,393.6875 685.5313,393.9844 684.3125,393.9844 C681.4219,393.9844 679.3125,392.0938 679.3125,389.5156 L679.3125,388.3906 C679.3125,385.6719 681.3125,383.5938 683.9375,383.5938 C684.8125,383.5938 685.4063,383.7344 686.3438,384.1719 Z "/><text fill="#000000" font-family="sans-serif" font-size="12" lengthAdjust="spacingAndGlyphs" textLength="44" x="698" y="392.6543">Project</text><line style="stroke: #A80036; stroke-width: 1.5;" x1="670" x2="744" y1="404.5" y2="404.5"/><text fill="#000000" font-family="sans-serif" font-size="11" lengthAdjust="spacingAndGlyphs" textLength="11" x="675" y="418.7104">ID</text><text fill="#000000" font-family="sans-serif" font-size="11" lengthAdjust="spacingAndGlyphs" textLength="63" x="675" y="431.5151">description</text><line style="stroke: #A80036; stroke-width: 1.5;" x1="670" x2="744" y1="438.1094" y2="438.1094"/><!--class Contract--><rect fill="#FEFECE" filter="url(#f1gnwkycrn16tg)" height="86.4141" id="Contract" style="stroke: #A80036; stroke-width: 1.5;" width="89" x="870.5" y="549"/><ellipse cx="886.85" cy="565" fill="#ADD1B2" rx="11" ry="11" style="stroke: #A80036; stroke-width: 1.0;"/><path d="M889.1938,560.6719 L889.3656,560.75 C889.5844,560.4375 889.7875,560.3438 890.0844,560.3438 C890.3813,560.3438 890.6625,560.4844 890.8188,560.75 C890.9125,560.9063 890.9281,561.0313 890.9281,561.4688 L890.9281,562.8906 C890.9281,563.3125 890.8969,563.5 890.7875,563.6563 C890.6156,563.875 890.35,564.0156 890.0844,564.0156 C889.8656,564.0156 889.6313,563.9063 889.4906,563.7656 C889.35,563.6406 889.3188,563.5156 889.2563,563.1094 C889.1625,562.7031 888.9906,562.4844 888.5063,562.2031 C888.0375,561.9531 887.4281,561.7969 886.85,561.7969 C885.1156,561.7969 883.8656,563.1094 883.8656,564.8906 L883.8656,565.9844 C883.8656,567.6875 885.1625,568.7813 887.2094,568.7813 C887.975,568.7813 888.6625,568.6563 889.0844,568.3906 C889.2719,568.2969 889.2719,568.2969 889.725,567.8125 C889.9125,567.625 890.1156,567.5469 890.3344,567.5469 C890.8031,567.5469 891.1938,567.9375 891.1938,568.3906 C891.1938,568.7813 890.8656,569.2344 890.2875,569.6406 C889.5375,570.1875 888.3813,570.4844 887.1625,570.4844 C884.2719,570.4844 882.1625,568.5938 882.1625,566.0156 L882.1625,564.8906 C882.1625,562.1719 884.1625,560.0938 886.7875,560.0938 C887.6625,560.0938 888.2563,560.2344 889.1938,560.6719 Z "/><text fill="#000000" font-family="sans-serif" font-size="12" lengthAdjust="spacingAndGlyphs" textLength="54" x="901.15" y="569.1543">Contract</text><line style="stroke: #A80036; stroke-width: 1.5;" x1="871.5" x2="958.5" y1="581" y2="581"/><text fill="#000000" font-family="sans-serif" font-size="11" lengthAdjust="spacingAndGlyphs" textLength="11" x="876.5" y="595.2104">ID</text><text fill="#000000" font-family="sans-serif" font-size="11" lengthAdjust="spacingAndGlyphs" textLength="77" x="876.5" y="608.0151">creation_date</text><text fill="#000000" font-family="sans-serif" font-size="11" lengthAdjust="spacingAndGlyphs" textLength="36" x="876.5" y="620.8198">status</text><line style="stroke: #A80036; stroke-width: 1.5;" x1="871.5" x2="958.5" y1="627.4141" y2="627.4141"/><!--class Developer--><rect fill="#FEFECE" filter="url(#f1gnwkycrn16tg)" height="48" id="Developer" style="stroke: #A80036; stroke-width: 1.5;" width="95" x="246.5" y="27"/><ellipse cx="261.5" cy="43" fill="#ADD1B2" rx="11" ry="11" style="stroke: #A80036; stroke-width: 1.0;"/><path d="M263.8438,38.6719 L264.0156,38.75 C264.2344,38.4375 264.4375,38.3438 264.7344,38.3438 C265.0313,38.3438 265.3125,38.4844 265.4688,38.75 C265.5625,38.9063 265.5781,39.0313 265.5781,39.4688 L265.5781,40.8906 C265.5781,41.3125 265.5469,41.5 265.4375,41.6563 C265.2656,41.875 265,42.0156 264.7344,42.0156 C264.5156,42.0156 264.2813,41.9063 264.1406,41.7656 C264,41.6406 263.9688,41.5156 263.9063,41.1094 C263.8125,40.7031 263.6406,40.4844 263.1563,40.2031 C262.6875,39.9531 262.0781,39.7969 261.5,39.7969 C259.7656,39.7969 258.5156,41.1094 258.5156,42.8906 L258.5156,43.9844 C258.5156,45.6875 259.8125,46.7813 261.8594,46.7813 C262.625,46.7813 263.3125,46.6563 263.7344,46.3906 C263.9219,46.2969 263.9219,46.2969 264.375,45.8125 C264.5625,45.625 264.7656,45.5469 264.9844,45.5469 C265.4531,45.5469 265.8438,45.9375 265.8438,46.3906 C265.8438,46.7813 265.5156,47.2344 264.9375,47.6406 C264.1875,48.1875 263.0313,48.4844 261.8125,48.4844 C258.9219,48.4844 256.8125,46.5938 256.8125,44.0156 L256.8125,42.8906 C256.8125,40.1719 258.8125,38.0938 261.4375,38.0938 C262.3125,38.0938 262.9063,38.2344 263.8438,38.6719 Z "/><text fill="#000000" font-family="sans-serif" font-size="12" lengthAdjust="spacingAndGlyphs" textLength="63" x="275.5" y="47.1543">Developer</text><line style="stroke: #A80036; stroke-width: 1.5;" x1="247.5" x2="340.5" y1="59" y2="59"/><line style="stroke: #A80036; stroke-width: 1.5;" x1="247.5" x2="340.5" y1="67" y2="67"/><!--class Secretary--><rect fill="#FEFECE" filter="url(#f1gnwkycrn16tg)" height="48" id="Secretary" style="stroke: #A80036; stroke-width: 1.5;" width="92" x="449" y="385.5"/><ellipse cx="464" cy="401.5" fill="#ADD1B2" rx="11" ry="11" style="stroke: #A80036; stroke-width: 1.0;"/><path d="M466.3438,397.1719 L466.5156,397.25 C466.7344,396.9375 466.9375,396.8438 467.2344,396.8438 C467.5313,396.8438 467.8125,396.9844 467.9688,397.25 C468.0625,397.4063 468.0781,397.5313 468.0781,397.9688 L468.0781,399.3906 C468.0781,399.8125 468.0469,400 467.9375,400.1563 C467.7656,400.375 467.5,400.5156 467.2344,400.5156 C467.0156,400.5156 466.7813,400.4063 466.6406,400.2656 C466.5,400.1406 466.4688,400.0156 466.4063,399.6094 C466.3125,399.2031 466.1406,398.9844 465.6563,398.7031 C465.1875,398.4531 464.5781,398.2969 464,398.2969 C462.2656,398.2969 461.0156,399.6094 461.0156,401.3906 L461.0156,402.4844 C461.0156,404.1875 462.3125,405.2813 464.3594,405.2813 C465.125,405.2813 465.8125,405.1563 466.2344,404.8906 C466.4219,404.7969 466.4219,404.7969 466.875,404.3125 C467.0625,404.125 467.2656,404.0469 467.4844,404.0469 C467.9531,404.0469 468.3438,404.4375 468.3438,404.8906 C468.3438,405.2813 468.0156,405.7344 467.4375,406.1406 C466.6875,406.6875 465.5313,406.9844 464.3125,406.9844 C461.4219,406.9844 459.3125,405.0938 459.3125,402.5156 L459.3125,401.3906 C459.3125,398.6719 461.3125,396.5938 463.9375,396.5938 C464.8125,396.5938 465.4063,396.7344 466.3438,397.1719 Z "/><text fill="#000000" font-family="sans-serif" font-size="12" lengthAdjust="spacingAndGlyphs" textLength="60" x="478" y="405.6543">Secretary</text><line style="stroke: #A80036; stroke-width: 1.5;" x1="450" x2="540" y1="417.5" y2="417.5"/><line style="stroke: #A80036; stroke-width: 1.5;" x1="450" x2="540" y1="425.5" y2="425.5"/><!--class Customer--><rect fill="#FEFECE" filter="url(#f1gnwkycrn16tg)" height="99.2188" id="Customer" style="stroke: #A80036; stroke-width: 1.5;" width="92" x="453" y="171"/><ellipse cx="468" cy="187" fill="#ADD1B2" rx="11" ry="11" style="stroke: #A80036; stroke-width: 1.0;"/><path d="M470.3438,182.6719 L470.5156,182.75 C470.7344,182.4375 470.9375,182.3438 471.2344,182.3438 C471.5313,182.3438 471.8125,182.4844 471.9688,182.75 C472.0625,182.9063 472.0781,183.0313 472.0781,183.4688 L472.0781,184.8906 C472.0781,185.3125 472.0469,185.5 471.9375,185.6563 C471.7656,185.875 471.5,186.0156 471.2344,186.0156 C471.0156,186.0156 470.7813,185.9063 470.6406,185.7656 C470.5,185.6406 470.4688,185.5156 470.4063,185.1094 C470.3125,184.7031 470.1406,184.4844 469.6563,184.2031 C469.1875,183.9531 468.5781,183.7969 468,183.7969 C466.2656,183.7969 465.0156,185.1094 465.0156,186.8906 L465.0156,187.9844 C465.0156,189.6875 466.3125,190.7813 468.3594,190.7813 C469.125,190.7813 469.8125,190.6563 470.2344,190.3906 C470.4219,190.2969 470.4219,190.2969 470.875,189.8125 C471.0625,189.625 471.2656,189.5469 471.4844,189.5469 C471.9531,189.5469 472.3438,189.9375 472.3438,190.3906 C472.3438,190.7813 472.0156,191.2344 471.4375,191.6406 C470.6875,192.1875 469.5313,192.4844 468.3125,192.4844 C465.4219,192.4844 463.3125,190.5938 463.3125,188.0156 L463.3125,186.8906 C463.3125,184.1719 465.3125,182.0938 467.9375,182.0938 C468.8125,182.0938 469.4063,182.2344 470.3438,182.6719 Z "/><text fill="#000000" font-family="sans-serif" font-size="12" lengthAdjust="spacingAndGlyphs" textLength="60" x="482" y="191.1543">Customer</text><line style="stroke: #A80036; stroke-width: 1.5;" x1="454" x2="544" y1="203" y2="203"/><text fill="#000000" font-family="sans-serif" font-size="11" lengthAdjust="spacingAndGlyphs" textLength="11" x="459" y="217.2104">ID</text><text fill="#000000" font-family="sans-serif" font-size="11" lengthAdjust="spacingAndGlyphs" textLength="59" x="459" y="230.0151">first name</text><text fill="#000000" font-family="sans-serif" font-size="11" lengthAdjust="spacingAndGlyphs" textLength="57" x="459" y="242.8198">last name</text><text fill="#000000" font-family="sans-serif" font-size="11" lengthAdjust="spacingAndGlyphs" textLength="46" x="459" y="255.6245">birthday</text><line style="stroke: #A80036; stroke-width: 1.5;" x1="454" x2="544" y1="262.2188" y2="262.2188"/><!--class Project_Type--><rect fill="#FEFECE" filter="url(#f1gnwkycrn16tg)" height="73.6094" id="Project_Type" style="stroke: #A80036; stroke-width: 1.5;" width="111" x="651.5" y="183.5"/><ellipse cx="666.5" cy="199.5" fill="#ADD1B2" rx="11" ry="11" style="stroke: #A80036; stroke-width: 1.0;"/><path d="M668.8438,195.1719 L669.0156,195.25 C669.2344,194.9375 669.4375,194.8438 669.7344,194.8438 C670.0313,194.8438 670.3125,194.9844 670.4688,195.25 C670.5625,195.4063 670.5781,195.5313 670.5781,195.9688 L670.5781,197.3906 C670.5781,197.8125 670.5469,198 670.4375,198.1563 C670.2656,198.375 670,198.5156 669.7344,198.5156 C669.5156,198.5156 669.2813,198.4063 669.1406,198.2656 C669,198.1406 668.9688,198.0156 668.9063,197.6094 C668.8125,197.2031 668.6406,196.9844 668.1563,196.7031 C667.6875,196.4531 667.0781,196.2969 666.5,196.2969 C664.7656,196.2969 663.5156,197.6094 663.5156,199.3906 L663.5156,200.4844 C663.5156,202.1875 664.8125,203.2813 666.8594,203.2813 C667.625,203.2813 668.3125,203.1563 668.7344,202.8906 C668.9219,202.7969 668.9219,202.7969 669.375,202.3125 C669.5625,202.125 669.7656,202.0469 669.9844,202.0469 C670.4531,202.0469 670.8438,202.4375 670.8438,202.8906 C670.8438,203.2813 670.5156,203.7344 669.9375,204.1406 C669.1875,204.6875 668.0313,204.9844 666.8125,204.9844 C663.9219,204.9844 661.8125,203.0938 661.8125,200.5156 L661.8125,199.3906 C661.8125,196.6719 663.8125,194.5938 666.4375,194.5938 C667.3125,194.5938 667.9063,194.7344 668.8438,195.1719 Z "/><text fill="#000000" font-family="sans-serif" font-size="12" lengthAdjust="spacingAndGlyphs" textLength="79" x="680.5" y="203.6543">Project_Type</text><line style="stroke: #A80036; stroke-width: 1.5;" x1="652.5" x2="761.5" y1="215.5" y2="215.5"/><text fill="#000000" font-family="sans-serif" font-size="11" lengthAdjust="spacingAndGlyphs" textLength="11" x="657.5" y="229.7104">ID</text><text fill="#000000" font-family="sans-serif" font-size="11" lengthAdjust="spacingAndGlyphs" textLength="32" x="657.5" y="242.5151">name</text><line style="stroke: #A80036; stroke-width: 1.5;" x1="652.5" x2="761.5" y1="249.1094" y2="249.1094"/><!--class Payment_Document--><rect fill="#FEFECE" filter="url(#f1gnwkycrn16tg)" height="73.6094" id="Payment_Document" style="stroke: #A80036; stroke-width: 1.5;" width="156" x="907" y="372.5"/><ellipse cx="922" cy="388.5" fill="#ADD1B2" rx="11" ry="11" style="stroke: #A80036; stroke-width: 1.0;"/><path d="M924.3438,384.1719 L924.5156,384.25 C924.7344,383.9375 924.9375,383.8438 925.2344,383.8438 C925.5313,383.8438 925.8125,383.9844 925.9688,384.25 C926.0625,384.4063 926.0781,384.5313 926.0781,384.9688 L926.0781,386.3906 C926.0781,386.8125 926.0469,387 925.9375,387.1563 C925.7656,387.375 925.5,387.5156 925.2344,387.5156 C925.0156,387.5156 924.7813,387.4063 924.6406,387.2656 C924.5,387.1406 924.4688,387.0156 924.4063,386.6094 C924.3125,386.2031 924.1406,385.9844 923.6563,385.7031 C923.1875,385.4531 922.5781,385.2969 922,385.2969 C920.2656,385.2969 919.0156,386.6094 919.0156,388.3906 L919.0156,389.4844 C919.0156,391.1875 920.3125,392.2813 922.3594,392.2813 C923.125,392.2813 923.8125,392.1563 924.2344,391.8906 C924.4219,391.7969 924.4219,391.7969 924.875,391.3125 C925.0625,391.125 925.2656,391.0469 925.4844,391.0469 C925.9531,391.0469 926.3438,391.4375 926.3438,391.8906 C926.3438,392.2813 926.0156,392.7344 925.4375,393.1406 C924.6875,393.6875 923.5313,393.9844 922.3125,393.9844 C919.4219,393.9844 917.3125,392.0938 917.3125,389.5156 L917.3125,388.3906 C917.3125,385.6719 919.3125,383.5938 921.9375,383.5938 C922.8125,383.5938 923.4063,383.7344 924.3438,384.1719 Z "/><text fill="#000000" font-family="sans-serif" font-size="12" lengthAdjust="spacingAndGlyphs" textLength="124" x="936" y="392.6543">Payment_Document</text><line style="stroke: #A80036; stroke-width: 1.5;" x1="908" x2="1062" y1="404.5" y2="404.5"/><text fill="#000000" font-family="sans-serif" font-size="11" lengthAdjust="spacingAndGlyphs" textLength="11" x="913" y="418.7104">ID</text><text fill="#000000" font-family="sans-serif" font-size="11" lengthAdjust="spacingAndGlyphs" textLength="34" x="913" y="431.5151">payed</text><line style="stroke: #A80036; stroke-width: 1.5;" x1="908" x2="1062" y1="438.1094" y2="438.1094"/><!--class Software_Analyst--><rect fill="#FEFECE" filter="url(#f1gnwkycrn16tg)" height="48" id="Software_Analyst" style="stroke: #A80036; stroke-width: 1.5;" width="138" x="139" y="385.5"/><ellipse cx="154" cy="401.5" fill="#ADD1B2" rx="11" ry="11" style="stroke: #A80036; stroke-width: 1.0;"/><path d="M156.3438,397.1719 L156.5156,397.25 C156.7344,396.9375 156.9375,396.8438 157.2344,396.8438 C157.5313,396.8438 157.8125,396.9844 157.9688,397.25 C158.0625,397.4063 158.0781,397.5313 158.0781,397.9688 L158.0781,399.3906 C158.0781,399.8125 158.0469,400 157.9375,400.1563 C157.7656,400.375 157.5,400.5156 157.2344,400.5156 C157.0156,400.5156 156.7813,400.4063 156.6406,400.2656 C156.5,400.1406 156.4688,400.0156 156.4063,399.6094 C156.3125,399.2031 156.1406,398.9844 155.6563,398.7031 C155.1875,398.4531 154.5781,398.2969 154,398.2969 C152.2656,398.2969 151.0156,399.6094 151.0156,401.3906 L151.0156,402.4844 C151.0156,404.1875 152.3125,405.2813 154.3594,405.2813 C155.125,405.2813 155.8125,405.1563 156.2344,404.8906 C156.4219,404.7969 156.4219,404.7969 156.875,404.3125 C157.0625,404.125 157.2656,404.0469 157.4844,404.0469 C157.9531,404.0469 158.3438,404.4375 158.3438,404.8906 C158.3438,405.2813 158.0156,405.7344 157.4375,406.1406 C156.6875,406.6875 155.5313,406.9844 154.3125,406.9844 C151.4219,406.9844 149.3125,405.0938 149.3125,402.5156 L149.3125,401.3906 C149.3125,398.6719 151.3125,396.5938 153.9375,396.5938 C154.8125,396.5938 155.4063,396.7344 156.3438,397.1719 Z "/><text fill="#000000" font-family="sans-serif" font-size="12" lengthAdjust="spacingAndGlyphs" textLength="106" x="168" y="405.6543">Software_Analyst</text><line style="stroke: #A80036; stroke-width: 1.5;" x1="140" x2="276" y1="417.5" y2="417.5"/><line style="stroke: #A80036; stroke-width: 1.5;" x1="140" x2="276" y1="425.5" y2="425.5"/><!--link Riequilibrium to Project_Type--><path d="M736.755,94.378 C730.241,103.628 724.212,113.737 720,124 C712.314,142.731 708.989,165.09 707.62,183.464 " fill="none" id="Riequilibrium-Project_Type" style="stroke: #A80036; stroke-width: 1.0;"/><text fill="#000000" font-family="sans-serif" font-size="13" lengthAdjust="spacingAndGlyphs" textLength="85" x="721" y="137.0669">offers service</text><text fill="#000000" font-family="sans-serif" font-size="13" lengthAdjust="spacingAndGlyphs" textLength="8" x="722.1816" y="114.5312">1</text><text fill="#000000" font-family="sans-serif" font-size="13" lengthAdjust="spacingAndGlyphs" textLength="7" x="700.089" y="172.3678">*</text><!--link Project_Type to Project--><path d="M707,257.555 C707,290.563 707,339.164 707,372.237 " fill="none" id="Project_Type-Project" style="stroke: #A80036; stroke-width: 1.0;"/><text fill="#000000" font-family="sans-serif" font-size="13" lengthAdjust="spacingAndGlyphs" textLength="22" x="708" y="313.0669">is a</text><text fill="#000000" font-family="sans-serif" font-size="13" lengthAdjust="spacingAndGlyphs" textLength="8" x="698.3375" y="277.0447">1</text><text fill="#000000" font-family="sans-serif" font-size="13" lengthAdjust="spacingAndGlyphs" textLength="7" x="699.3766" y="361.3771">*</text><!--link Project to Contract--><path d="M737.367,446.647 C745.112,455.241 753.624,464.18 762,472 C796.436,504.15 838.966,536.726 870.438,559.646 " fill="none" id="Project-Contract" style="stroke: #A80036; stroke-width: 1.0;"/><text fill="#000000" font-family="sans-serif" font-size="13" lengthAdjust="spacingAndGlyphs" textLength="86" x="816" y="515.0669">associated to</text><!--link Project to Specification_Document--><path d="M679.42,446.784 C671.08,455.966 661.361,465.153 651,472 C574.232,522.732 473.423,554.405 401.361,572.198 " fill="none" id="Project-Specification_Document" style="stroke: #A80036; stroke-width: 1.0;"/><text fill="#000000" font-family="sans-serif" font-size="13" lengthAdjust="spacingAndGlyphs" textLength="76" x="593" y="515.0669">is related to</text><!--link Specification_Document to Specification_Requirement--><path d="M259.213,637.717 C233.799,660.094 202.639,687.53 174.996,711.869 " fill="none" id="Specification_Document-Specification_Requirement" style="stroke: #A80036; stroke-width: 1.0;"/><polygon fill="#FFFFFF" points="269.008,629.093,261.8615,630.056,260.0018,637.0232,267.1483,636.0602,269.008,629.093" style="stroke: #A80036; stroke-width: 1.0;"/><text fill="#000000" font-family="sans-serif" font-size="13" lengthAdjust="spacingAndGlyphs" textLength="97" x="227" y="678.0669">is composed of</text><!--link Riequilibrium to Employee--><path d="M799.402,94.205 C804.054,103.708 808.289,113.96 811,124 C831.175,198.731 832.289,288.416 830.107,346.842 " fill="none" id="Riequilibrium-Employee" style="stroke: #A80036; stroke-width: 1.0;"/><text fill="#000000" font-family="sans-serif" font-size="13" lengthAdjust="spacingAndGlyphs" textLength="51" x="832" y="225.0669">works in</text><text fill="#000000" font-family="sans-serif" font-size="13" lengthAdjust="spacingAndGlyphs" textLength="8" x="794.8129" y="114.3306">1</text><text fill="#000000" font-family="sans-serif" font-size="13" lengthAdjust="spacingAndGlyphs" textLength="7" x="823.1772" y="335.8145">*</text><!--link Secretary to Employee--><path d="M506.334,385.468 C519.384,360.955 543.365,324.34 576.5,308.5 C643.865,276.297 677.135,276.297 744.5,308.5 C756.312,314.146 766.96,322.433 776.365,331.87 " fill="none" id="Secretary-Employee" style="stroke: #A80036; stroke-width: 1.0;"/><polygon fill="none" points="781.645,327.273,789.673,346.883,771.168,336.56,781.645,327.273" style="stroke: #A80036; stroke-width: 1.0;"/><!--link Developer to Employee--><path d="M341.629,64.843 C398.602,81.964 494.702,116.586 562,171 C604.307,205.207 595.476,231.582 634,270 C659.243,295.174 668.336,298.817 699,317 C725.675,332.818 736.491,329.363 762,347 C762.665,347.46 763.33,347.927 763.995,348.401 " fill="none" id="Developer-Employee" style="stroke: #A80036; stroke-width: 1.0;"/><polygon fill="none" points="768.599,343.117,779.955,361.007,759.922,354.104,768.599,343.117" style="stroke: #A80036; stroke-width: 1.0;"/><!--link Developer to Specification_Requirement--><path d="M246.24,58.815 C167.245,73.077 18,113.985 18,219.5 C18,219.5 18,219.5 18,593 C18,635.44 37.7587,678.423 58.4436,711.793 " fill="none" id="Developer-Specification_Requirement" style="stroke: #A80036; stroke-width: 1.0;"/><text fill="#000000" font-family="sans-serif" font-size="13" lengthAdjust="spacingAndGlyphs" textLength="84" x="19" y="414.0669">has assigned</text><text fill="#000000" font-family="sans-serif" font-size="13" lengthAdjust="spacingAndGlyphs" textLength="8" x="230.6378" y="55.9379">1</text><text fill="#000000" font-family="sans-serif" font-size="13" lengthAdjust="spacingAndGlyphs" textLength="7" x="45.6558" y="700.7598">*</text><!--link Developer to Report--><path d="M294,75.29 C294,103.246 294,150.448 294,183.2 " fill="none" id="Developer-Report" style="stroke: #A80036; stroke-width: 1.0;"/><text fill="#000000" font-family="sans-serif" font-size="13" lengthAdjust="spacingAndGlyphs" textLength="31" x="295" y="137.0669">send</text><text fill="#000000" font-family="sans-serif" font-size="13" lengthAdjust="spacingAndGlyphs" textLength="8" x="285.025" y="95.1219">1</text><text fill="#000000" font-family="sans-serif" font-size="13" lengthAdjust="spacingAndGlyphs" textLength="7" x="286.3766" y="172.3335">*</text><!--link Report to Software_Analyst--><path d="M277.418,257.555 C260.091,295.233 233.419,353.228 218.691,385.253 " fill="none" id="Report-Software_Analyst" style="stroke: #A80036; stroke-width: 1.0;"/><text fill="#000000" font-family="sans-serif" font-size="13" lengthAdjust="spacingAndGlyphs" textLength="46" x="258" y="313.0669">receive</text><text fill="#000000" font-family="sans-serif" font-size="13" lengthAdjust="spacingAndGlyphs" textLength="7" x="267.0919" y="277.0447">*</text><text fill="#000000" font-family="sans-serif" font-size="13" lengthAdjust="spacingAndGlyphs" textLength="8" x="212.3219" y="374.5977">1</text><!--link Report to Specification_Document--><path d="M304.158,257.581 C307.507,270.82 310.906,285.993 313,300 C326.298,388.948 322.332,412.104 325,502 C325.224,509.552 325.775,511.484 325,519 C323.783,530.812 321.47,543.544 319.019,554.969 " fill="none" id="Report-Specification_Document" style="stroke: #A80036; stroke-width: 1.0;"/><text fill="#000000" font-family="sans-serif" font-size="13" lengthAdjust="spacingAndGlyphs" textLength="65" x="326" y="414.0669">is referred</text><text fill="#000000" font-family="sans-serif" font-size="13" lengthAdjust="spacingAndGlyphs" textLength="7" x="298.2607" y="277.075">*</text><text fill="#000000" font-family="sans-serif" font-size="13" lengthAdjust="spacingAndGlyphs" textLength="8" x="311.9444" y="543.8737">1</text><!--link CEO to Employee--><path d="M612.518,385.211 C621.503,360.862 639.131,324.727 668.5,308.5 C698.065,292.165 714.025,293.932 744.5,308.5 C756.312,314.146 766.96,322.433 776.365,331.87 " fill="none" id="CEO-Employee" style="stroke: #A80036; stroke-width: 1.0;"/><polygon fill="none" points="781.645,327.273,789.673,346.883,771.168,336.56,781.645,327.273" style="stroke: #A80036; stroke-width: 1.0;"/><!--link Software_Analyst to Employee--><path d="M226.144,385.25 C246.29,360.556 281.316,323.79 321.5,308.5 C409.355,275.07 659.692,267.959 744.5,308.5 C756.312,314.146 766.96,322.433 776.365,331.87 " fill="none" id="Software_Analyst-Employee" style="stroke: #A80036; stroke-width: 1.0;"/><polygon fill="none" points="781.645,327.273,789.673,346.883,771.168,336.56,781.645,327.273" style="stroke: #A80036; stroke-width: 1.0;"/><!--link Customer to Project--><path d="M496.011,270.07 C497.497,286.847 502.262,304.539 514,317 C556.738,362.373 597.028,315.819 651,347 C662.128,353.429 672.287,362.821 680.806,372.339 " fill="none" id="Customer-Project" style="stroke: #A80036; stroke-width: 1.0;"/><text fill="#000000" font-family="sans-serif" font-size="13" lengthAdjust="spacingAndGlyphs" textLength="56" x="515" y="313.0669">requests</text><text fill="#000000" font-family="sans-serif" font-size="13" lengthAdjust="spacingAndGlyphs" textLength="8" x="487.0282" y="290.1563">1</text><text fill="#000000" font-family="sans-serif" font-size="13" lengthAdjust="spacingAndGlyphs" textLength="7" x="668.5168" y="361.4973">*</text><!--link Payment_Document to Contract--><path d="M971.003,446.593 C959.552,476.12 943.342,517.919 931.306,548.954 " fill="none" id="Payment_Document-Contract" style="stroke: #A80036; stroke-width: 1.0;"/><text fill="#000000" font-family="sans-serif" font-size="13" lengthAdjust="spacingAndGlyphs" textLength="23" x="948" y="515.0669">has</text><text fill="#000000" font-family="sans-serif" font-size="13" lengthAdjust="spacingAndGlyphs" textLength="20" x="947.0285" y="466.089">0.1</text><text fill="#000000" font-family="sans-serif" font-size="13" lengthAdjust="spacingAndGlyphs" textLength="8" x="925.2673" y="537.9427">1</text><!--link Software_Analyst to Specification_Document--><path d="M221.126,433.728 C238.451,464.387 269.136,518.687 289.525,554.766 " fill="none" id="Software_Analyst-Specification_Document" style="stroke: #A80036; stroke-width: 1.0;"/><text fill="#000000" font-family="sans-serif" font-size="13" lengthAdjust="spacingAndGlyphs" textLength="48" x="270" y="515.0669">creates</text><text fill="#000000" font-family="sans-serif" font-size="13" lengthAdjust="spacingAndGlyphs" textLength="8" x="215.3505" y="453.5448">1</text><text fill="#000000" font-family="sans-serif" font-size="13" lengthAdjust="spacingAndGlyphs" textLength="7" x="278.2545" y="543.9113">*</text><!--
@startuml
class Riequilibrium {
   name
   RAL
   agency_type
}

class Employee {
   ID
   first name
   last name
   birthday
   address
   role
}

class CEO {
}

class Specification_Document {
   ID
   name
}

class Specification_Requirement {
   ID
   name
   description
   completed
   estimation delivery
   variability in delivery
}

class Report {
    ID
    creation_date
}

class Project {
   ID
   description
}

class Contract {
   ID
   creation_date
   status
}

class Developer {
}

class Secretary {
}

class Customer {
   ID
   first name
   last name
   birthday
}

class Project_Type {
   ID
   name
}

class Payment_Document {
   ID
   payed
}

class Software_Analyst {
}

Riequilibrium"1" - - "*"Project_Type : offers service
Project_Type"1" - - "*"Project : is a
Project - - Contract : associated to
Project - - Specification_Document : is related to
Specification_Document o- - Specification_Requirement : is composed of
Riequilibrium"1" - - "*"Employee : works in
Secretary -|> Employee
Developer -|> Employee
Developer"1"- - "*"Specification_Requirement : has assigned
Developer"1" - -"*" Report : send
Report"*" - - "1"Software_Analyst : receive
Report"*" - - "1"Specification_Document : is referred
CEO -|> Employee
Software_Analyst -|> Employee
Customer"1" - - "*"Project :requests
Payment_Document"0.1" - -"1" Contract : has
Software_Analyst"1" - - "*"Specification_Document : creates
@enduml

PlantUML version 1.2019.03(Sun Mar 10 11:04:44 UTC 2019)
(GPL source distribution)
Java Runtime: Java(TM) SE Runtime Environment
JVM: Java HotSpot(TM) 64-Bit Server VM
Java Version: 1.7.0_25-b15
Operating System: Linux
Default Encoding: UTF-8
Language: en
Country: US
--></g></svg>